<?xml version="1.0" standalone="no"?>
<!DOCTYPE svg PUBLIC "-//W3C//DTD SVG 1.1//EN" "http://www.w3.org/Graphics/SVG/1.1/DTD/svg11.dtd">
<svg width="286mm" height="405mm" viewBox="0 0 286 405" xmlns="http://www.w3.org/2000/svg" version="1.1">
<title>OpenSCAD Model</title>
<path d="
M 285.669,393.194 L 284.898,393.631 L 284.119,394.054 L 283.332,394.463 L 282.539,394.859 L 281.738,395.24
 L 280.932,395.608 L 280.119,395.962 L 279.3,396.301 L 278.475,396.626 L 277.644,396.936 L 276.808,397.232
 L 275.968,397.514 L 275.122,397.78 L 274.272,398.032 L 273.417,398.269 L 272.559,398.491 L 271.697,398.698
 L 270.831,398.89 L 269.963,399.067 L 269.091,399.228 L 268.216,399.375 L 267.339,399.506 L 266.46,399.621
 L 265.58,399.722 L 264.697,399.807 L 263.813,399.876 L 262.928,399.93 L 262.042,399.969 L 261.156,399.992
 L 260.27,400 L 259.383,399.992 L 258.497,399.969 L 257.611,399.93 L 256.726,399.876 L 255.842,399.807
 L 254.959,399.722 L 254.079,399.621 L 253.199,399.506 L 252.323,399.375 L 251.448,399.228 L 250.576,399.067
 L 249.708,398.89 L 248.842,398.698 L 247.98,398.491 L 247.121,398.269 L 246.267,398.032 L 245.417,397.78
 L 244.571,397.514 L 243.731,397.232 L 242.895,396.936 L 242.064,396.626 L 241.239,396.301 L 240.42,395.962
 L 239.607,395.608 L 238.8,395.24 L 238,394.859 L 237.207,394.463 L 236.42,394.054 L 235.641,393.631
 L 234.869,393.194 L 234.106,392.744 L 233.35,392.281 L 232.602,391.804 L 231.862,391.315 L 231.132,390.813
 L 230.41,390.298 L 229.697,389.771 L 228.994,389.231 L 228.3,388.679 L 227.616,388.115 L 226.942,387.539
 L 226.278,386.952 L 225.624,386.353 L 224.981,385.742 L 224.348,385.121 L 223.727,384.489 L 223.117,383.846
 L 222.518,383.192 L 221.93,382.528 L 221.354,381.854 L 220.79,381.169 L 220.239,380.476 L 219.699,379.772
 L 219.171,379.059 L 218.657,378.338 L 218.154,377.607 L 217.665,376.868 L 217.189,376.12 L 216.725,375.364
 L 216.275,374.6 L 0,-0 L 0,405 L 285.669,405 z
" stroke="black" fill="lightgray" stroke-width="0.5"/>
</svg>
